<svg width="211" height="231" viewBox="0 0 211 231" fill="none" xmlns="http://www.w3.org/2000/svg">
<g clip-path="url(#clip0_100_6520)">
<g filter="url(#filter0_i_100_6520)">
<path d="M175 88.3555C175 136.68 135.825 194.054 87.5 194.054C39.1751 194.054 0 136.68 0 88.3555C0 40.0306 39.1751 0.855469 87.5 0.855469C135.825 0.855469 175 40.0306 175 88.3555Z" fill="url(#paint0_linear_100_6520)"/>
</g>
<mask id="mask0_100_6520" style="mask-type:alpha" maskUnits="userSpaceOnUse" x="0" y="0" width="175" height="195">
<path d="M175 88.3555C175 136.68 135.825 194.054 87.5 194.054C39.1751 194.054 0 136.68 0 88.3555C0 40.0306 39.1751 0.855469 87.5 0.855469C135.825 0.855469 175 40.0306 175 88.3555Z" fill="url(#paint1_linear_100_6520)"/>
</mask>
<g mask="url(#mask0_100_6520)">
<g filter="url(#filter1_di_100_6520)">
<path d="M116.311 81.8628C117.753 63.8419 131.755 49.3656 149.718 47.3244L150.362 47.2511C170.218 44.9948 190.267 45.0209 210.117 47.3291C227.659 49.3688 241.313 63.5228 242.722 81.1267L242.91 83.4827C243.031 84.9944 243.031 86.5134 242.91 88.0251L242.844 88.8492C241.365 107.338 227.012 122.196 208.586 124.314L202.607 125.002C187.283 126.763 171.808 126.763 156.485 125.002L150.506 124.314C132.08 122.196 117.727 107.338 116.248 88.8492L116.181 88.0195C116.061 86.5115 116.061 84.9963 116.181 83.4883L116.311 81.8628Z" fill="#141615" shape-rendering="crispEdges"/>
<path d="M149.244 43.1614C129.29 45.4289 113.736 61.51 112.135 81.5286L112.005 83.1542C111.866 84.8846 111.866 86.6232 112.005 88.3536L112.071 89.1833C113.71 109.668 129.612 126.13 150.028 128.477L156.006 129.164C171.648 130.962 187.444 130.962 203.086 129.164L209.064 128.477C229.48 126.13 245.382 109.668 247.021 89.1833L247.087 88.3592C247.225 86.6251 247.225 84.8827 247.087 83.1486L246.898 80.7926C245.33 61.195 230.13 45.438 210.601 43.1673C190.433 40.8222 170.063 40.7956 149.889 43.0881L149.244 43.1614Z" stroke="url(#paint2_linear_100_6520)" stroke-opacity="0.59" stroke-width="8.37969" shape-rendering="crispEdges"/>
</g>
<g filter="url(#filter2_di_100_6520)">
<ellipse cx="151.204" cy="84.1098" rx="12.2035" ry="15.2544" fill="white"/>
</g>
</g>
</g>
<g filter="url(#filter3_i_100_6520)">
<g filter="url(#filter4_i_100_6520)">
<path fill-rule="evenodd" clip-rule="evenodd" d="M175.18 147.549C174.535 141.204 177.57 134.773 183.45 131.375C187.114 129.258 191.247 128.686 195.094 129.458C198.089 130.058 198.078 133.768 195.433 135.297L188.636 139.224C186.66 140.366 185.984 142.893 187.126 144.869L190.696 151.048C191.838 153.024 194.365 153.7 196.341 152.558L202.462 149.022C205.187 147.447 208.435 149.447 207.214 152.347C205.849 155.587 203.455 158.426 200.176 160.321C194.297 163.718 187.211 163.136 182.036 159.411L139.722 183.861C136.446 185.754 132.256 184.633 130.364 181.357C128.471 178.081 129.592 173.891 132.868 171.998L175.18 147.549ZM139.717 175.636C140.474 176.946 140.025 178.622 138.715 179.379C137.405 180.136 135.729 179.688 134.972 178.378C134.214 177.067 134.663 175.391 135.973 174.634C137.284 173.877 138.96 174.325 139.717 175.636Z" fill="#849AA7"/>
</g>
</g>
<g filter="url(#filter5_di_100_6520)">
<path d="M158.5 167.855C166.1 157.455 154.5 140.855 98 115.855L69 148.855C91.5 173.355 149 180.855 158.5 167.855Z" fill="url(#paint3_linear_100_6520)" shape-rendering="crispEdges"/>
</g>
<defs>
<filter id="filter0_i_100_6520" x="0" y="0.855469" width="175" height="193.199" filterUnits="userSpaceOnUse" color-interpolation-filters="sRGB">
<feFlood flood-opacity="0" result="BackgroundImageFix"/>
<feBlend mode="normal" in="SourceGraphic" in2="BackgroundImageFix" result="shape"/>
<feColorMatrix in="SourceAlpha" type="matrix" values="0 0 0 0 0 0 0 0 0 0 0 0 0 0 0 0 0 0 127 0" result="hardAlpha"/>
<feOffset/>
<feGaussianBlur stdDeviation="18.5938"/>
<feComposite in2="hardAlpha" operator="arithmetic" k2="-1" k3="1"/>
<feColorMatrix type="matrix" values="0 0 0 0 1 0 0 0 0 1 0 0 0 0 1 0 0 0 0.49 0"/>
<feBlend mode="normal" in2="shape" result="effect1_innerShadow_100_6520"/>
</filter>
<filter id="filter1_di_100_6520" x="99.3314" y="37.1992" width="160.429" height="114.263" filterUnits="userSpaceOnUse" color-interpolation-filters="sRGB">
<feFlood flood-opacity="0" result="BackgroundImageFix"/>
<feColorMatrix in="SourceAlpha" type="matrix" values="0 0 0 0 0 0 0 0 0 0 0 0 0 0 0 0 0 0 127 0" result="hardAlpha"/>
<feOffset dy="8.37969"/>
<feGaussianBlur stdDeviation="4.18984"/>
<feComposite in2="hardAlpha" operator="out"/>
<feColorMatrix type="matrix" values="0 0 0 0 0 0 0 0 0 0 0 0 0 0 0 0 0 0 0.25 0"/>
<feBlend mode="normal" in2="BackgroundImageFix" result="effect1_dropShadow_100_6520"/>
<feBlend mode="normal" in="SourceGraphic" in2="effect1_dropShadow_100_6520" result="shape"/>
<feColorMatrix in="SourceAlpha" type="matrix" values="0 0 0 0 0 0 0 0 0 0 0 0 0 0 0 0 0 0 127 0" result="hardAlpha"/>
<feOffset dy="8.37969"/>
<feGaussianBlur stdDeviation="12.5695"/>
<feComposite in2="hardAlpha" operator="arithmetic" k2="-1" k3="1"/>
<feColorMatrix type="matrix" values="0 0 0 0 1 0 0 0 0 1 0 0 0 0 1 0 0 0 0.52 0"/>
<feBlend mode="normal" in2="shape" result="effect2_innerShadow_100_6520"/>
</filter>
<filter id="filter2_di_100_6520" x="131.019" y="62.7526" width="40.3683" height="46.4691" filterUnits="userSpaceOnUse" color-interpolation-filters="sRGB">
<feFlood flood-opacity="0" result="BackgroundImageFix"/>
<feColorMatrix in="SourceAlpha" type="matrix" values="0 0 0 0 0 0 0 0 0 0 0 0 0 0 0 0 0 0 127 0" result="hardAlpha"/>
<feOffset dy="1.8778"/>
<feGaussianBlur stdDeviation="3.99033"/>
<feComposite in2="hardAlpha" operator="out"/>
<feColorMatrix type="matrix" values="0 0 0 0 0 0 0 0 0 0 0 0 0 0 0 0 0 0 0.8 0"/>
<feBlend mode="normal" in2="BackgroundImageFix" result="effect1_dropShadow_100_6520"/>
<feBlend mode="normal" in="SourceGraphic" in2="effect1_dropShadow_100_6520" result="shape"/>
<feColorMatrix in="SourceAlpha" type="matrix" values="0 0 0 0 0 0 0 0 0 0 0 0 0 0 0 0 0 0 127 0" result="hardAlpha"/>
<feOffset dx="1.8778" dy="2.8167"/>
<feGaussianBlur stdDeviation="0.9389"/>
<feComposite in2="hardAlpha" operator="arithmetic" k2="-1" k3="1"/>
<feColorMatrix type="matrix" values="0 0 0 0 0 0 0 0 0 0 0 0 0 0 0 0 0 0 0.57 0"/>
<feBlend mode="normal" in2="shape" result="effect2_innerShadow_100_6520"/>
</filter>
<filter id="filter3_i_100_6520" x="129.443" y="129.129" width="78.0353" height="59.6523" filterUnits="userSpaceOnUse" color-interpolation-filters="sRGB">
<feFlood flood-opacity="0" result="BackgroundImageFix"/>
<feBlend mode="normal" in="SourceGraphic" in2="BackgroundImageFix" result="shape"/>
<feColorMatrix in="SourceAlpha" type="matrix" values="0 0 0 0 0 0 0 0 0 0 0 0 0 0 0 0 0 0 127 0" result="hardAlpha"/>
<feOffset dy="4"/>
<feGaussianBlur stdDeviation="2"/>
<feComposite in2="hardAlpha" operator="arithmetic" k2="-1" k3="1"/>
<feColorMatrix type="matrix" values="0 0 0 0 1 0 0 0 0 1 0 0 0 0 1 0 0 0 0.25 0"/>
<feBlend mode="normal" in2="shape" result="effect1_innerShadow_100_6520"/>
</filter>
<filter id="filter4_i_100_6520" x="127.443" y="129.129" width="80.0353" height="56.6523" filterUnits="userSpaceOnUse" color-interpolation-filters="sRGB">
<feFlood flood-opacity="0" result="BackgroundImageFix"/>
<feBlend mode="normal" in="SourceGraphic" in2="BackgroundImageFix" result="shape"/>
<feColorMatrix in="SourceAlpha" type="matrix" values="0 0 0 0 0 0 0 0 0 0 0 0 0 0 0 0 0 0 127 0" result="hardAlpha"/>
<feOffset dx="-2" dy="1"/>
<feGaussianBlur stdDeviation="2"/>
<feComposite in2="hardAlpha" operator="arithmetic" k2="-1" k3="1"/>
<feColorMatrix type="matrix" values="0 0 0 0 0 0 0 0 0 0 0 0 0 0 0 0 0 0 0.25 0"/>
<feBlend mode="normal" in2="shape" result="effect1_innerShadow_100_6520"/>
</filter>
<filter id="filter5_di_100_6520" x="65" y="112.855" width="99.5886" height="69.3008" filterUnits="userSpaceOnUse" color-interpolation-filters="sRGB">
<feFlood flood-opacity="0" result="BackgroundImageFix"/>
<feColorMatrix in="SourceAlpha" type="matrix" values="0 0 0 0 0 0 0 0 0 0 0 0 0 0 0 0 0 0 127 0" result="hardAlpha"/>
<feOffset dy="4"/>
<feGaussianBlur stdDeviation="2"/>
<feComposite in2="hardAlpha" operator="out"/>
<feColorMatrix type="matrix" values="0 0 0 0 0 0 0 0 0 0 0 0 0 0 0 0 0 0 0.25 0"/>
<feBlend mode="normal" in2="BackgroundImageFix" result="effect1_dropShadow_100_6520"/>
<feBlend mode="normal" in="SourceGraphic" in2="effect1_dropShadow_100_6520" result="shape"/>
<feColorMatrix in="SourceAlpha" type="matrix" values="0 0 0 0 0 0 0 0 0 0 0 0 0 0 0 0 0 0 127 0" result="hardAlpha"/>
<feOffset dx="-3" dy="-3"/>
<feGaussianBlur stdDeviation="2.5"/>
<feComposite in2="hardAlpha" operator="arithmetic" k2="-1" k3="1"/>
<feColorMatrix type="matrix" values="0 0 0 0 0 0 0 0 0 0 0 0 0 0 0 0 0 0 0.13 0"/>
<feBlend mode="normal" in2="shape" result="effect2_innerShadow_100_6520"/>
</filter>
<linearGradient id="paint0_linear_100_6520" x1="-30.625" y1="-6.80078" x2="175" y2="183.512" gradientUnits="userSpaceOnUse">
<stop stop-color="#B3CDFF"/>
<stop offset="0.367475" stop-color="#5686E3"/>
<stop offset="0.69481" stop-color="#1739ED"/>
<stop offset="1" stop-color="#3B6DCF"/>
</linearGradient>
<linearGradient id="paint1_linear_100_6520" x1="-30.625" y1="-6.80078" x2="175" y2="183.512" gradientUnits="userSpaceOnUse">
<stop stop-color="#B3CDFF"/>
<stop offset="0.367475" stop-color="#5686E3"/>
<stop offset="0.69481" stop-color="#1739ED"/>
<stop offset="1" stop-color="#3B6DCF"/>
</linearGradient>
<linearGradient id="paint2_linear_100_6520" x1="179.546" y1="43.8555" x2="179.546" y2="127.652" gradientUnits="userSpaceOnUse">
<stop stop-color="white"/>
<stop offset="0.48352" stop-color="white" stop-opacity="0.42"/>
<stop offset="0.809806" stop-color="white" stop-opacity="0.16"/>
</linearGradient>
<linearGradient id="paint3_linear_100_6520" x1="164" y1="175.855" x2="60" y2="125.855" gradientUnits="userSpaceOnUse">
<stop offset="0.393745" stop-color="#2F56EA"/>
<stop offset="0.612532" stop-color="#2243EE"/>
<stop offset="0.755482" stop-color="#2F56EA" stop-opacity="0"/>
</linearGradient>
<clipPath id="clip0_100_6520">
<rect width="175" height="229.761" fill="white" transform="translate(0 0.855469)"/>
</clipPath>
</defs>
</svg>
